<mxfile host="app.diagrams.net" modified="2023-11-12T17:52:38.661Z" agent="Mozilla/5.0 (Windows NT 10.0; Win64; x64) AppleWebKit/537.36 (KHTML, like Gecko) Chrome/118.0.0.0 Safari/537.36 OPR/104.0.0.0" etag="6ec-TBqhX3neE0O6K8tz" version="22.1.0" type="device">
  <diagram name="Page-1" id="MFSnYSo0AQTpGj7ugGXA">
    <mxGraphModel dx="1393" dy="656" grid="1" gridSize="10" guides="1" tooltips="1" connect="1" arrows="1" fold="1" page="1" pageScale="1" pageWidth="850" pageHeight="1100" math="0" shadow="0">
      <root>
        <mxCell id="0" />
        <mxCell id="1" parent="0" />
        <mxCell id="SeWhXk9JfzFj-lclIRen-8" style="edgeStyle=orthogonalEdgeStyle;rounded=0;orthogonalLoop=1;jettySize=auto;html=1;" edge="1" parent="1" source="SeWhXk9JfzFj-lclIRen-1" target="SeWhXk9JfzFj-lclIRen-5">
          <mxGeometry relative="1" as="geometry" />
        </mxCell>
        <mxCell id="SeWhXk9JfzFj-lclIRen-1" value="User" style="shape=umlActor;verticalLabelPosition=bottom;verticalAlign=top;html=1;outlineConnect=0;" vertex="1" parent="1">
          <mxGeometry x="130" y="230" width="30" height="60" as="geometry" />
        </mxCell>
        <mxCell id="SeWhXk9JfzFj-lclIRen-2" value="AI" style="shape=umlActor;verticalLabelPosition=bottom;verticalAlign=top;html=1;outlineConnect=0;" vertex="1" parent="1">
          <mxGeometry x="590" y="220" width="30" height="60" as="geometry" />
        </mxCell>
        <mxCell id="SeWhXk9JfzFj-lclIRen-3" value="ArtBot" style="shape=umlActor;verticalLabelPosition=bottom;verticalAlign=top;html=1;outlineConnect=0;" vertex="1" parent="1">
          <mxGeometry x="600" y="490" width="30" height="60" as="geometry" />
        </mxCell>
        <mxCell id="SeWhXk9JfzFj-lclIRen-4" value="HarmonyHub" style="shape=umlFrame;whiteSpace=wrap;html=1;pointerEvents=0;width=130;height=30;" vertex="1" parent="1">
          <mxGeometry x="180" y="180" width="370" height="420" as="geometry" />
        </mxCell>
        <mxCell id="SeWhXk9JfzFj-lclIRen-5" value="Перегляд свого фінансового стану" style="ellipse;whiteSpace=wrap;html=1;" vertex="1" parent="1">
          <mxGeometry x="240" y="220" width="120" height="80" as="geometry" />
        </mxCell>
        <mxCell id="SeWhXk9JfzFj-lclIRen-6" value="Створення та редагування бюджету" style="ellipse;whiteSpace=wrap;html=1;" vertex="1" parent="1">
          <mxGeometry x="240" y="310" width="120" height="80" as="geometry" />
        </mxCell>
        <mxCell id="SeWhXk9JfzFj-lclIRen-7" value="&lt;font style=&quot;font-size: 9px;&quot;&gt;Надання рекомендацій щодо фінансів та бюджету&lt;/font&gt;" style="ellipse;whiteSpace=wrap;html=1;" vertex="1" parent="1">
          <mxGeometry x="225" y="400" width="135" height="60" as="geometry" />
        </mxCell>
        <mxCell id="SeWhXk9JfzFj-lclIRen-9" value="" style="endArrow=classic;html=1;rounded=0;entryX=0.085;entryY=0.241;entryDx=0;entryDy=0;entryPerimeter=0;" edge="1" parent="1" source="SeWhXk9JfzFj-lclIRen-1" target="SeWhXk9JfzFj-lclIRen-6">
          <mxGeometry width="50" height="50" relative="1" as="geometry">
            <mxPoint x="320" y="410" as="sourcePoint" />
            <mxPoint x="370" y="360" as="targetPoint" />
          </mxGeometry>
        </mxCell>
        <mxCell id="SeWhXk9JfzFj-lclIRen-11" value="" style="endArrow=classic;html=1;rounded=0;exitX=0.028;exitY=0.318;exitDx=0;exitDy=0;exitPerimeter=0;" edge="1" parent="1" source="SeWhXk9JfzFj-lclIRen-7" target="SeWhXk9JfzFj-lclIRen-1">
          <mxGeometry width="50" height="50" relative="1" as="geometry">
            <mxPoint x="320" y="460" as="sourcePoint" />
            <mxPoint x="370" y="410" as="targetPoint" />
          </mxGeometry>
        </mxCell>
        <mxCell id="SeWhXk9JfzFj-lclIRen-12" value="Аналіз фінансових даних" style="ellipse;whiteSpace=wrap;html=1;" vertex="1" parent="1">
          <mxGeometry x="420" y="200" width="120" height="80" as="geometry" />
        </mxCell>
        <mxCell id="SeWhXk9JfzFj-lclIRen-13" style="edgeStyle=orthogonalEdgeStyle;rounded=0;orthogonalLoop=1;jettySize=auto;html=1;entryX=0.99;entryY=0.628;entryDx=0;entryDy=0;entryPerimeter=0;" edge="1" parent="1" source="SeWhXk9JfzFj-lclIRen-2" target="SeWhXk9JfzFj-lclIRen-12">
          <mxGeometry relative="1" as="geometry" />
        </mxCell>
        <mxCell id="SeWhXk9JfzFj-lclIRen-15" value="" style="edgeStyle=entityRelationEdgeStyle;fontSize=12;html=1;endArrow=blockThin;endFill=1;startArrow=none;rounded=0;startFill=0;dashed=1;exitX=0.025;exitY=0.735;exitDx=0;exitDy=0;entryX=1;entryY=0.5;entryDx=0;entryDy=0;exitPerimeter=0;" edge="1" parent="1" source="SeWhXk9JfzFj-lclIRen-12" target="SeWhXk9JfzFj-lclIRen-5">
          <mxGeometry width="60" height="60" relative="1" as="geometry">
            <mxPoint x="402.64000000000203" y="310" as="sourcePoint" />
            <mxPoint x="369.9999999999999" y="311.19999999999993" as="targetPoint" />
            <Array as="points">
              <mxPoint x="390" y="290" />
              <mxPoint x="370" y="260" />
              <mxPoint x="360" y="244" />
              <mxPoint x="380" y="244" />
            </Array>
          </mxGeometry>
        </mxCell>
        <mxCell id="SeWhXk9JfzFj-lclIRen-16" value="&lt;font style=&quot;font-size: 9px;&quot;&gt;&amp;lt;&amp;lt;includes&amp;gt;&amp;gt;&lt;/font&gt;" style="text;html=1;strokeColor=none;fillColor=none;align=center;verticalAlign=middle;whiteSpace=wrap;rounded=0;" vertex="1" parent="1">
          <mxGeometry x="360" y="235" width="60" height="30" as="geometry" />
        </mxCell>
        <mxCell id="SeWhXk9JfzFj-lclIRen-17" value="" style="edgeStyle=entityRelationEdgeStyle;fontSize=12;html=1;endArrow=blockThin;endFill=1;startArrow=none;rounded=0;startFill=0;dashed=1;exitX=0.176;exitY=0.878;exitDx=0;exitDy=0;entryX=0.95;entryY=0.283;entryDx=0;entryDy=0;exitPerimeter=0;entryPerimeter=0;" edge="1" parent="1" source="SeWhXk9JfzFj-lclIRen-12" target="SeWhXk9JfzFj-lclIRen-6">
          <mxGeometry width="60" height="60" relative="1" as="geometry">
            <mxPoint x="433" y="304" as="sourcePoint" />
            <mxPoint x="370" y="305" as="targetPoint" />
            <Array as="points">
              <mxPoint x="400" y="335" />
              <mxPoint x="380" y="305" />
              <mxPoint x="380" y="310" />
              <mxPoint x="370" y="289" />
              <mxPoint x="390" y="289" />
            </Array>
          </mxGeometry>
        </mxCell>
        <mxCell id="SeWhXk9JfzFj-lclIRen-18" value="&lt;font style=&quot;font-size: 9px;&quot;&gt;&amp;lt;&amp;lt;includes&amp;gt;&amp;gt;&lt;/font&gt;" style="text;html=1;strokeColor=none;fillColor=none;align=center;verticalAlign=middle;whiteSpace=wrap;rounded=0;rotation=-60;" vertex="1" parent="1">
          <mxGeometry x="360" y="280" width="60" height="30" as="geometry" />
        </mxCell>
        <mxCell id="SeWhXk9JfzFj-lclIRen-19" value="" style="edgeStyle=entityRelationEdgeStyle;fontSize=12;html=1;endArrow=blockThin;endFill=1;startArrow=none;rounded=0;startFill=0;dashed=1;exitX=0.275;exitY=0.973;exitDx=0;exitDy=0;entryX=1;entryY=0;entryDx=0;entryDy=0;exitPerimeter=0;" edge="1" parent="1" source="SeWhXk9JfzFj-lclIRen-12" target="SeWhXk9JfzFj-lclIRen-7">
          <mxGeometry width="60" height="60" relative="1" as="geometry">
            <mxPoint x="463" y="384" as="sourcePoint" />
            <mxPoint x="400" y="385" as="targetPoint" />
            <Array as="points">
              <mxPoint x="430" y="415" />
              <mxPoint x="410" y="385" />
              <mxPoint x="400" y="369" />
              <mxPoint x="420" y="369" />
            </Array>
          </mxGeometry>
        </mxCell>
        <mxCell id="SeWhXk9JfzFj-lclIRen-20" value="&lt;font style=&quot;font-size: 9px;&quot;&gt;&amp;lt;&amp;lt;extends&amp;gt;&amp;gt;&lt;/font&gt;" style="text;html=1;strokeColor=none;fillColor=none;align=center;verticalAlign=middle;whiteSpace=wrap;rounded=0;rotation=-75;" vertex="1" parent="1">
          <mxGeometry x="365" y="335" width="60" height="30" as="geometry" />
        </mxCell>
        <mxCell id="SeWhXk9JfzFj-lclIRen-21" value="&lt;font style=&quot;font-size: 9px;&quot;&gt;Знаходження статей про живопис та картинки популярних картин&lt;/font&gt;" style="ellipse;whiteSpace=wrap;html=1;" vertex="1" parent="1">
          <mxGeometry x="365" y="420" width="120" height="90" as="geometry" />
        </mxCell>
        <mxCell id="SeWhXk9JfzFj-lclIRen-22" style="edgeStyle=orthogonalEdgeStyle;rounded=0;orthogonalLoop=1;jettySize=auto;html=1;entryX=0.823;entryY=0.134;entryDx=0;entryDy=0;entryPerimeter=0;" edge="1" parent="1" source="SeWhXk9JfzFj-lclIRen-3" target="SeWhXk9JfzFj-lclIRen-27">
          <mxGeometry relative="1" as="geometry" />
        </mxCell>
        <mxCell id="SeWhXk9JfzFj-lclIRen-23" value="&lt;font style=&quot;font-size: 9px;&quot;&gt;Налаштування еквалайзеру або плейлисту з музикою для певного настрою&lt;/font&gt;" style="ellipse;whiteSpace=wrap;html=1;" vertex="1" parent="1">
          <mxGeometry x="232.5" y="470" width="120" height="80" as="geometry" />
        </mxCell>
        <mxCell id="SeWhXk9JfzFj-lclIRen-24" value="" style="endArrow=classic;html=1;rounded=0;entryX=0.028;entryY=0.36;entryDx=0;entryDy=0;entryPerimeter=0;" edge="1" parent="1" source="SeWhXk9JfzFj-lclIRen-1" target="SeWhXk9JfzFj-lclIRen-23">
          <mxGeometry width="50" height="50" relative="1" as="geometry">
            <mxPoint x="170" y="280" as="sourcePoint" />
            <mxPoint x="260" y="339" as="targetPoint" />
          </mxGeometry>
        </mxCell>
        <mxCell id="SeWhXk9JfzFj-lclIRen-25" value="" style="endArrow=classic;html=1;rounded=0;exitX=0.19;exitY=0.886;exitDx=0;exitDy=0;exitPerimeter=0;" edge="1" parent="1" source="SeWhXk9JfzFj-lclIRen-21">
          <mxGeometry width="50" height="50" relative="1" as="geometry">
            <mxPoint x="180" y="290" as="sourcePoint" />
            <mxPoint x="150" y="290" as="targetPoint" />
            <Array as="points">
              <mxPoint x="310" y="610" />
              <mxPoint x="230" y="610" />
              <mxPoint x="150" y="610" />
            </Array>
          </mxGeometry>
        </mxCell>
        <mxCell id="SeWhXk9JfzFj-lclIRen-26" value="" style="endArrow=classic;html=1;rounded=0;entryX=1;entryY=0.5;entryDx=0;entryDy=0;" edge="1" parent="1" source="SeWhXk9JfzFj-lclIRen-2" target="SeWhXk9JfzFj-lclIRen-7">
          <mxGeometry width="50" height="50" relative="1" as="geometry">
            <mxPoint x="190" y="300" as="sourcePoint" />
            <mxPoint x="280" y="359" as="targetPoint" />
          </mxGeometry>
        </mxCell>
        <mxCell id="SeWhXk9JfzFj-lclIRen-29" style="edgeStyle=orthogonalEdgeStyle;rounded=0;orthogonalLoop=1;jettySize=auto;html=1;" edge="1" parent="1" source="SeWhXk9JfzFj-lclIRen-27" target="SeWhXk9JfzFj-lclIRen-1">
          <mxGeometry relative="1" as="geometry">
            <Array as="points">
              <mxPoint x="480" y="620" />
              <mxPoint x="140" y="620" />
            </Array>
          </mxGeometry>
        </mxCell>
        <mxCell id="SeWhXk9JfzFj-lclIRen-27" value="Знаходження майбутніх арт-івентів, виставок, музеїв" style="ellipse;whiteSpace=wrap;html=1;" vertex="1" parent="1">
          <mxGeometry x="420" y="510" width="120" height="80" as="geometry" />
        </mxCell>
        <mxCell id="SeWhXk9JfzFj-lclIRen-28" value="" style="endArrow=classic;html=1;rounded=0;entryX=0.984;entryY=0.643;entryDx=0;entryDy=0;entryPerimeter=0;" edge="1" parent="1" source="SeWhXk9JfzFj-lclIRen-3" target="SeWhXk9JfzFj-lclIRen-21">
          <mxGeometry width="50" height="50" relative="1" as="geometry">
            <mxPoint x="320" y="510" as="sourcePoint" />
            <mxPoint x="370" y="460" as="targetPoint" />
          </mxGeometry>
        </mxCell>
      </root>
    </mxGraphModel>
  </diagram>
</mxfile>
